<svg width="140" height="100" viewBox="0 0 140 100" fill="none" xmlns="http://www.w3.org/2000/svg">
<path d="M23.3461 44.1109C23.3461 37.9377 16 37.9377 16 44.1109C16 31.9151 32.0789 31.9151 32.0789 44.1109V56.9089H23.3461V44.1109Z" fill="#B2FF52"/>
<path d="M32.079 62.3604C32.079 68.5335 42.6185 68.5335 42.6185 62.3604C42.6185 74.5561 23.3462 74.5561 23.3462 62.3604V54.0793H32.079V62.3604Z" fill="#B2FF52"/>
<path d="M36.8164 37.0471C36.8164 32.332 28.7662 32.332 28.7662 37.0471C28.7662 27.7319 43.4865 27.7319 43.4865 37.0471V50.2723L36.8164 57.1724V37.0471Z" fill="#B2FF52"/>
<path d="M47.7517 32.7165C47.7517 29.5334 42.3173 29.5334 42.3173 32.7165C42.3173 26.428 52.2545 26.428 52.2545 32.7165V41.6445L47.7517 46.3026V32.7165Z" fill="#B2FF52"/>
<path d="M33.2105 50.9745H27.4493V45.9815H35.1309L33.2105 50.9745Z" fill="#B2FF52"/>
<path d="M21.9204 45.9816H27.6815V50.9746H20L21.9204 45.9816Z" fill="#B2FF52"/>
<path d="M64.1001 53H61.1001V42.3H56.7801V39.6H68.4201V42.3H64.1001V53ZM79.3259 53H69.1059V39.6H79.3259V42.3H72.1059V44.92H79.0259V47.6H72.1059V50.3H79.3259V53ZM83.0446 53H79.9246L84.8646 39.6H89.2246L94.1646 53H90.9046L89.8246 50.02H84.1446L83.0446 53ZM85.8846 45.26L85.1246 47.34H88.8446L88.0846 45.26L87.1046 42.24H86.9046L85.8846 45.26ZM97.7895 53H94.7895V39.6H99.0095L101.349 45.86L102.429 49.3H102.629L103.689 45.86L105.929 39.6H110.149V53H107.149V46.66L107.309 44.08H107.089L106.309 46.7L104.289 52.08H100.649L98.6295 46.7L97.8295 44.08H97.6295L97.7895 46.66V53Z" fill="white"/>
<path d="M60.6801 71H57.6801V57.6H61.9001L64.2401 63.86L65.3201 67.3H65.5201L66.5801 63.86L68.8201 57.6H73.0401V71H70.0401V64.66L70.2001 62.08H69.9801L69.2001 64.7L67.1801 70.08H63.5401L61.5201 64.7L60.7201 62.08H60.5201L60.6801 64.66V71ZM76.7946 71H73.6746L78.6146 57.6H82.9746L87.9146 71H84.6546L83.5746 68.02H77.8946L76.7946 71ZM79.6346 63.26L78.8746 65.34H82.5946L81.8346 63.26L80.8546 60.24H80.6546L79.6346 63.26ZM91.5395 71H88.5395V57.6H94.6995C97.8995 57.6 99.6795 59.08 99.6795 61.68C99.6795 63.86 98.5995 65.16 96.2995 65.36V65.56C97.4595 65.92 98.0195 66.62 98.5395 67.64L100.239 71H96.7395L95.1595 67.9C94.5595 66.74 94.1595 66.24 92.7395 66.24H91.5395V71ZM91.5395 60.3V63.76H94.8395C96.2395 63.76 96.6995 63.34 96.6995 62.02C96.6995 60.74 96.2395 60.3 94.8395 60.3H91.5395ZM107.245 71H104.245V60.3H99.9246V57.6H111.565V60.3H107.245V71ZM118.128 71.2C114.188 71.2 112.368 69.6 112.368 66.64V66.38H115.308V66.58C115.308 68.06 115.848 68.48 118.268 68.48C119.968 68.48 120.388 68.14 120.388 67.24C120.388 66.34 120.188 66.02 118.308 65.7L115.948 65.28C113.388 64.84 112.308 63.54 112.308 61.46C112.308 59.42 113.808 57.4 117.648 57.4C121.468 57.4 123.068 59.38 123.068 62.04V62.2H120.108V61.98C120.108 60.58 119.528 60.12 117.548 60.12C115.828 60.12 115.288 60.5 115.288 61.34C115.288 62.2 115.648 62.4 117.208 62.7L119.588 63.16C122.408 63.7 123.368 65.18 123.368 67.14C123.368 69.28 121.928 71.2 118.128 71.2Z" fill="white"/>
</svg>
